<?xml version="1.0" encoding="utf-8" ?>
<svg baseProfile="full" height="200mm" version="1.1" viewBox="0,0,200,200" width="200mm" xmlns="http://www.w3.org/2000/svg" xmlns:ev="http://www.w3.org/2001/xml-events" xmlns:xlink="http://www.w3.org/1999/xlink"><defs /><rect fill="#1a1a1a" height="200" width="200" x="0" y="0" /><text alignment-baseline="middle" fill="#e1ed5e" style="dominant-baseline: central; font-size:9.0px; font-family:Arial;" text-anchor="middle" x="100.0" y="100.0">2022</text><line stroke="#e1ed5e" stroke-width="0.3" x1="100.0" x2="100.0" y1="15.0" y2="10.0" /><path d="M 100.0 14.0 a86.0,86.0 0 0,1 42.46469731375804,11.215312516191453" fill="none" id="id1" stroke="none" /><text fill="#e1ed5e" style="font-size:6.75px; font-family:Arial;" text-anchor="middle"><textPath startOffset="22.20632615414155" xlink:href="#id1">January</textPath></text><line stroke="#e1ed5e" stroke-width="0.3" x1="143.23703022742887" x2="145.7803849466894" y1="26.81831364943548" y2="22.513508569990506" /><path d="M 143.74570117128098 25.957352633546492 a86.0,86.0 0 0,1 28.547481713284135,27.462654790039103" fill="none" id="id2" stroke="none" /><text fill="#e1ed5e" style="font-size:6.75px; font-family:Arial;" text-anchor="middle"><textPath startOffset="19.985693538727396" xlink:href="#id2">February</textPath></text><line stroke="#e1ed5e" stroke-width="0.3" x1="172.23445277983987" x2="176.4835382374775" y1="55.19839476539836" y2="52.563006222186495" /><path d="M 173.08426987136738 54.67131705675599 a86.0,86.0 0 0,1 12.851231095245387,41.99856678651699" fill="none" id="id3" stroke="none" /><text fill="#e1ed5e" style="font-size:6.75px; font-family:Arial;" text-anchor="middle"><textPath startOffset="22.20632615414155" xlink:href="#id3">March</textPath></text><line stroke="#e1ed5e" stroke-width="0.3" x1="184.98032266829074" x2="189.97916517819016" y1="98.17113171792111" y2="98.06355123074" /><path d="M 185.9800911702706 98.14961562048488 a86.0,86.0 0 0,1 -9.607161424134198,41.387399972396054" fill="none" id="id4" stroke="none" /><text fill="#e1ed5e" style="font-size:6.75px; font-family:Arial;" text-anchor="middle"><textPath startOffset="21.466115282336823" xlink:href="#id4">April</textPath></text><line stroke="#e1ed5e" stroke-width="0.3" x1="174.80103733775053" x2="179.2010983576182" y1="140.37084112569926" y2="142.7455964860345" /><path d="M 175.68104954172406 140.8457921977663 a86.0,86.0 0 0,1 -30.038265399797805,32.042727171017184" fill="none" id="id5" stroke="none" /><text fill="#e1ed5e" style="font-size:6.75px; font-family:Arial;" text-anchor="middle"><textPath startOffset="22.206326154141568" xlink:href="#id5">May</textPath></text><line stroke="#e1ed5e" stroke-width="0.3" x1="143.8653032363475" x2="146.44561519142675" y1="172.8068346515853" y2="177.08958963109032" /><path d="M 144.38136562736335 173.6633856474863 a86.0,86.0 0 0,1 -40.68145358897372,12.25698825130547" fill="none" id="id6" stroke="none" /><text fill="#e1ed5e" style="font-size:6.75px; font-family:Arial;" text-anchor="middle"><textPath startOffset="21.466115282336833" xlink:href="#id6">June</textPath></text><line stroke="#e1ed5e" stroke-width="0.3" x1="102.19456741930631" x2="102.32365962044197" y1="184.97166512339345" y2="189.96999836594603" /><path d="M 102.22038585953345 185.97133177190398 a86.0,86.0 0 0,1 -42.740103519485714,-10.115201625700543" fill="none" id="id7" stroke="none" /><text fill="#e1ed5e" style="font-size:6.75px; font-family:Arial;" text-anchor="middle"><textPath startOffset="22.20632615414155" xlink:href="#id7">July</textPath></text><path d="M 98.73552117531835 120.96189622390904 l -2.7756444366977004 46.01324237373135 a67.0968835799419,67.0968835799419 0 0,0 -1.1522683264098947,-0.07946717011577324 l 3.5672755238865252 -45.9586468590993" fill="#38ff2e" stroke="none" /><path d="M 98.37488393609728 120.93702456842531 l -3.3034051145390313 42.55909813387075 a63.687109521718654,63.687109521718654 0 0,0 -1.0922511609935113,-0.09424402612371725 l 4.035500593274085 -42.49592985546837" fill="#6bff28" stroke="none" /><path d="M 96.93821686468263 120.77559828337769 l -3.027785099010983 20.544906064657958 a41.766816024884804,41.766816024884804 0 0,0 -0.7103623226357109,-0.11094398545667152 l 3.380983285255211 -20.48974377185418" fill="#ff0000" stroke="none" /><path d="M 96.22490169976321 120.6578951692458 l -8.237930676711112 45.07917272520765 a66.82570583660882,66.82570583660882 0 0,0 -1.1297757024334014,-0.21652420226018998 l 9.01267399371621 -44.930691324598996" fill="#3cff2e" stroke="none" /><path d="M 95.86986931433489 120.58985236759428 l -9.310519011237071 46.41553173424103 a68.34012410662801,68.34012410662801 0 0,0 -1.1513961636143044,-0.24128626090059022 l 10.108106636280763 -46.248389492613896" fill="#30ff3a" stroke="none" /><path d="M 95.51606077576429 120.51570834832081 l -10.070722883259325 46.077344762612185 a68.16504171273495,68.16504171273495 0 0,0 -1.1441335104540047,-0.26040106200042057 l 10.862376543106192 -45.897166967034075" fill="#30ff37" stroke="none" /><path d="M 94.46302465271185 120.25689768951611 l -12.485823608091211 45.67910014667546 a68.35478836804546,68.35478836804546 0 0,0 -1.132309542097538,-0.32000198693107396 l 13.270264318293362 -45.45740936640586" fill="#30ff3a" stroke="none" /><path d="M 91.07499286063937 119.00905698771935 l -9.949514918068813 21.19111986405456 a44.410604609825896,44.410604609825896 0 0,0 -0.6891834975615387,-0.3308499604417182 l 10.312811083630594 -21.01671562711328" fill="#ff3805" stroke="none" /><line stroke="#e1ed5e" stroke-width="0.3" x1="58.666819895761336" x2="56.23545636021788" y1="174.27360380694188" y2="178.64263932499728" /><path d="M 58.180547188652646 175.14741091055294 a86.0,86.0 0 0,1 -31.652253787137756,-30.449443065178592" fill="none" id="id8" stroke="none" /><text fill="#e1ed5e" style="font-size:6.75px; font-family:Arial;" text-anchor="middle"><textPath startOffset="22.20632615414155" xlink:href="#id8">August</textPath></text><path d="M 89.4739219176387 118.17145234162733 l -27.27850750804312 47.09162284894736 a75.421851442356,75.421851442356 0 0,0 -1.117795399780264,-0.6604132249271023 l 28.085070778851765 -46.61509105172651" fill="#3dffb0" stroke="none" /><path d="M 89.1626897886671 117.98757091392108 l -30.259171734960372 50.223624383284374 a79.63471599896312,79.63471599896312 0 0,0 -1.1680547111982855,-0.717514605135738 l 31.11920564609097 -49.69532131132026" fill="#45ffef" stroke="none" /><path d="M 88.8546689885994 117.79835938074946 l -33.435993034201786 53.395078142248366 a84.0,84.0 0 0,0 -1.2188727918123061,-0.7779422847047832 l 34.350147628061016 -52.81162142871978" fill="#4dd2ff" stroke="none" /><path d="M 88.54995079064634 117.60387380957326 l -26.076511708265702 40.0913230251594 a68.8257111267464,68.8257111267464 0 0,0 -0.9875680066525344,-0.6545062243718343 l 26.762754413658197 -39.636518779696246" fill="#31ff43" stroke="none" /><path d="M 87.65650970185807 116.9893568818739 l -37.012121942276266 50.942815479623484 a83.96878289804317,83.96878289804317 0 0,0 -1.1620281107539032,-0.8596406161671194 l 37.88353502344874 -50.298164914716594" fill="#4dd2ff" stroke="none" /><path d="M 87.07902340077011 116.55440617244103 l -28.685263891405185 36.75167321719946 a67.62113092561538,67.62113092561538 0 0,0 -0.9114121163082843,-0.7240809067518926 l 29.313633500430825 -36.252458396442435" fill="#31ff2f" stroke="none" /><path d="M 86.79598089348748 116.32954008644616 l -15.114935044622479 18.69278859142634 a45.03916817876433,45.03916817876433 0 0,0 -0.5986560582948871,-0.4926531796797385 l 15.434461231462056 -18.42984029288942" fill="#ff4506" stroke="none" /><path d="M 86.51685102203217 116.09983520530335 l -15.157852359178891 18.0995497007317 a44.608349953182284,44.608349953182284 0 0,0 -0.5844427192882232,-0.4980747645914471 l 15.46716055504417 -17.8359505459173" fill="#ff3c05" stroke="none" /><path d="M 85.70375840098266 115.38237550388516 l -32.06143807667218 34.497254140125364 a68.09560865678117,68.09560865678117 0 0,0 -0.8517274394991926,-0.8053614561927883 l 32.65050135056219 -33.940258047186646" fill="#30ff36" stroke="none" /><path d="M 85.44109423537348 115.13401014063109 l -32.59674235746735 33.88437547195739 a68.01806581989197,68.01806581989197 0 0,0 -0.8367843116131168,-0.818969568665027 l 33.17517662145626 -33.31825580036979" fill="#30ff34" stroke="none" /><path d="M 85.18274418774928 114.88116024355367 l -33.00429661938937 33.146638820451436 a67.77588332072517,67.77588332072517 0 0,0 -0.8196343316400225,-0.8302852506244699 l 33.569971576084924 -32.5736130758463" fill="#2fff30" stroke="none" /><path d="M 84.67929136418377 114.36230785411682 l -33.43240881578643 31.34101425272829 a66.82559474371928,66.82559474371928 0 0,0 -0.7794842604902674,-0.845976214751039 l 33.96693948427243 -30.76088678317591" fill="#3cff2e" stroke="none" /><path d="M 84.4343377721795 114.09645910891817 l -38.14732246018518 34.546694082414916 a72.4654474662886,72.4654474662886 0 0,0 -0.8293537621331452,-0.9317877436754382 l 38.73633507196666 -33.88493216899861" fill="#38ff80" stroke="none" /><path d="M 83.95833913139862 113.55231037782056 l -35.906381564059174 30.33441683417225 a68.00473467314885,68.00473467314885 0 0,0 -0.7477412029623234,-0.9007024482048495 l 36.423218766915035 -29.711853128853637" fill="#30ff34" stroke="none" /><path d="M 83.72743513129214 113.27417163493432 l -36.12355998974107 29.467409670049488 a67.61802032470864,67.61802032470864 0 0,0 -0.7279630103679514,-0.9082457848638018 l 36.62544091216388 -28.841236051607428" fill="#31ff2f" stroke="none" /><path d="M 82.44556493220864 111.52570212397912 l -50.562876107811434 33.19802923305452 a81.48730102469965,81.48730102469965 0 0,0 -0.7597532017698512,-1.1791538410526217 l 51.12683417295833 -32.32275379208045" fill="#48f4ff" stroke="none" /><path d="M 82.24976979558568 111.22182372390057 l -39.586099886978076 25.026618231571582 a67.83365162327871,67.83365162327871 0 0,0 -0.6154623454609408,-0.9923212683600867 l 40.011026872106974 -24.341500631846234" fill="#30ff31" stroke="none" /><path d="M 82.05923443525364 110.91462005526583 l -40.01899923805457 24.34635077856631 a67.84298342599891,67.84298342599891 0 0,0 -0.5983722847706137,-1.0029063675850651 l 40.432152398523414 -23.653882317095135" fill="#30ff31" stroke="none" /><line stroke="#e1ed5e" stroke-width="0.3" x1="26.63291911575756" x2="22.317208475507996" y1="142.92168965132927" y2="145.44649492493687" /><path d="M 25.769776987707644 143.4266507060508 a86.0,86.0 0 0,1 -11.730757126820373,-40.83630448921669" fill="none" id="id9" stroke="none" /><text fill="#e1ed5e" style="font-size:6.75px; font-family:Arial;" text-anchor="middle"><textPath startOffset="21.46611528233685" xlink:href="#id9">September</textPath></text><path d="M 81.87401531095188 110.60418214915194 l -39.02402312259157 22.8300893156282 a66.21158434330877,66.21158434330877 0 0,0 -0.5670486321777427,-0.9886970868733559 l 39.41122375092169 -22.15497238289654" fill="#45ff2d" stroke="none" /><path d="M 81.69416730710424 110.29060199501025 l -40.72147400794239 22.891528000718424 a67.71467113859632,67.71467113859632 0 0,0 -0.5624302891811301,-1.0209743437845562 l 41.10948070657504 -22.187183138536042" fill="#30ff2f" stroke="none" /><path d="M 81.51974371655577 109.97397251340807 l -54.615746061605016 29.476644785804822 a83.0624871052896,83.0624871052896 0 0,0 -0.6682475646210201,-1.2640725565929913 l 55.11504613445092 -28.532157214125707" fill="#4bdfff" stroke="none" /><path d="M 81.18737489456691 109.33194174019688 l -42.301062989344636 20.983305261898753 a68.21947722860271,68.21947722860271 0 0,0 -0.5127724912372036,-1.0564632101436366 l 42.65598873719656 -20.25205309578983" fill="#30ff38" stroke="none" /><path d="M 81.02952815118164 109.00673069616217 l -41.998654275601574 19.93996626315464 a67.49181880220704,67.49181880220704 0 0,0 -0.48923657034966456,-1.0537720480046302 l 42.33566546279106 -19.214074147871184" fill="#33ff2f" stroke="none" /><path d="M 80.87730276802145 108.67885076344099 l -42.50764035206512 19.292125082891626 a67.68067671440133,67.68067671440133 0 0,0 -0.47234316971026585,-1.0650091527416183 l 42.83342460650666 -18.557567593657314" fill="#30ff2f" stroke="none" /><path d="M 80.73074385275274 108.34839909993369 l -42.147286549113325 18.260298498420802 a66.93291047500145,66.93291047500145 0 0,0 -0.44892546506414943,-1.061127188973066 l 42.455362995369775 -17.532096783781576" fill="#3bff2e" stroke="none" /><path d="M 80.58989483394504 108.01547362559985 l -43.0184717803344 17.764634607539534 a67.54214388116236,67.54214388116236 0 0,0 -0.4345127174188765,-1.0784249305050446 l 43.317887112010666 -17.021510309191683" fill="#32ff2f" stroke="none" /><path d="M 80.45479744820244 107.68017299344265 l -44.60838270823025 17.52860300367649 a68.92869423533706,68.92869423533706 0 0,0 -0.42442259356090456,-1.1080334639434744 l 44.903499581384665 -16.758145972899857" fill="#32ff44" stroke="none" /><path d="M 80.0844068197444 106.66101706037122 l -43.68711895783216 14.61169858526164 a67.06588866376416,67.06588866376416 0 0,0 -0.35675140267733035,-1.097967918884204 l 43.93216261152574 -13.857531766399633" fill="#39ff2e" stroke="none" /><path d="M 79.97269907076064 106.31721596034903 l -43.34733419116399 13.673059208453438 a66.45265591358032,66.45265591358032 0 0,0 -0.334710090072332,-1.093851940552589 l 43.576271053742445 -12.924880295348801" fill="#42ff2d" stroke="none" /><path d="M 79.86692584326677 105.97154293290107 l -44.73304067574242 13.267982367465216 a67.6592357867228,67.6592357867228 0 0,0 -0.321566186389245,-1.1194140803413692 l 44.954799499017774 -12.49601081161925" fill="#30ff2f" stroke="none" /><path d="M 79.76711848015287 105.62410040840567 l -45.1529207790895 12.551082254165495 a67.86486872523554,67.86486872523554 0 0,0 -0.30316828018702013,-1.1282019519443587 l 45.362277135618285 -11.771989369045597" fill="#30ff32" stroke="none" /><path d="M 79.50377843672027 104.57218783832718 l -47.0213558846946 10.489273393825115 a69.17709793631732,69.17709793631732 0 0,0 -0.24925483874309315,-1.1644356253991803 l 47.19494476216214 -9.678323949009771" fill="#32ff49" stroke="none" /><path d="M 79.4281124754447 104.21870165774334 l -47.155657812421786 9.670267327088256 a69.1369934031984,69.1369934031984 0 0,0 -0.22904120309149614,-1.1678761600751426 l 47.315128948488955 -8.857127439945158" fill="#32ff48" stroke="none" /><path d="M 79.35854240842038 103.8639653848113 l -47.38446850427956 8.870107416876749 a69.20753738804746,69.20753738804746 0 0,0 -0.2091173554388201,-1.1728411840160071 l 47.53013230205757 -8.053147482127528" fill="#32ff49" stroke="none" /><path d="M 79.29508885075956 103.50808413554451 l -24.351773392544228 4.125980995281559 a45.69883775677005,45.69883775677005 0 0,0 -0.12473224799743171,-0.7767078273462483 l 24.41918739490295 -3.7061939382420968" fill="#ff5207" stroke="none" /><path d="M 79.23777060512086 103.15116336523772 l -22.994846462501428 3.4900162397672294 a44.25818516539615,44.25818516539615 0 0,0 -0.10783390687002732,-0.7541900934936607 l 23.051514420388056 -3.093680674293168" fill="#ff3505" stroke="none" /><path d="M 79.10278846688536 102.07522291339032 l -24.689267598039965 2.4517976359232034 a45.81070829652279,45.81070829652279 0 0,0 -0.07117108823843764,-0.7853670281200388 l 24.72781328255548 -2.0264492192545984" fill="#ff5407" stroke="none" /><line stroke="#e1ed5e" stroke-width="0.3" x1="15.007084014347285" x2="10.007500721073583" y1="101.09737516637583" y2="101.16192664675087" /><path d="M 14.007167355692545 101.11028546245083 a86.0,86.0 0 0,1 10.666146001902534,-42.60595125391555" fill="none" id="id10" stroke="none" /><text fill="#e1ed5e" style="font-size:6.75px; font-family:Arial;" text-anchor="middle"><textPath startOffset="22.20632615414155" xlink:href="#id10">October</textPath></text><line stroke="#e1ed5e" stroke-width="0.3" x1="26.266209847984243" x2="21.928928074336255" y1="57.711370442889674" y2="55.22380399835377" /><path d="M 25.398753493254645 57.213857153982495 a86.0,86.0 0 0,1 29.58750427330803,-30.492523968695096" fill="none" id="id11" stroke="none" /><text fill="#e1ed5e" style="font-size:6.75px; font-family:Arial;" text-anchor="middle"><textPath startOffset="21.46611528233685" xlink:href="#id11">November</textPath></text><line stroke="#e1ed5e" stroke-width="0.3" x1="56.76296977257108" x2="54.21961505331056" y1="26.818313649435495" y2="22.513508569990535" /><path d="M 56.25429882871898 25.957352633546506 a86.0,86.0 0 0,1 42.26535254187918,-11.944610805530505" fill="none" id="id12" stroke="none" /><text fill="#e1ed5e" style="font-size:6.75px; font-family:Arial;" text-anchor="middle"><textPath startOffset="22.20632615414155" xlink:href="#id12">December</textPath></text></svg>