<?xml version="1.0" encoding="utf-8" ?>
<svg baseProfile="full" height="200mm" version="1.1" viewBox="0,0,200,200" width="200mm" xmlns="http://www.w3.org/2000/svg" xmlns:ev="http://www.w3.org/2001/xml-events" xmlns:xlink="http://www.w3.org/1999/xlink"><defs /><rect fill="#1a1a1a" height="200" width="200" x="0" y="0" /><text alignment-baseline="middle" fill="#e1ed5e" style="dominant-baseline: central; font-size:9.0px; font-family:Arial;" text-anchor="middle" x="100.0" y="100.0">2023</text><line stroke="#e1ed5e" stroke-width="0.3" x1="100.0" x2="100.0" y1="15.0" y2="10.0" /><path d="M 100.0 14.0 a86.0,86.0 0 0,1 42.46469731375804,11.215312516191453" fill="none" id="id13" stroke="none" /><text fill="#e1ed5e" style="font-size:6.75px; font-family:Arial;" text-anchor="middle"><textPath startOffset="22.20632615414155" xlink:href="#id13">January</textPath></text><line stroke="#e1ed5e" stroke-width="0.3" x1="143.23703022742887" x2="145.7803849466894" y1="26.81831364943548" y2="22.513508569990506" /><path d="M 143.74570117128098 25.957352633546492 a86.0,86.0 0 0,1 28.547481713284135,27.462654790039103" fill="none" id="id14" stroke="none" /><text fill="#e1ed5e" style="font-size:6.75px; font-family:Arial;" text-anchor="middle"><textPath startOffset="19.985693538727396" xlink:href="#id14">February</textPath></text><line stroke="#e1ed5e" stroke-width="0.3" x1="172.23445277983987" x2="176.4835382374775" y1="55.19839476539836" y2="52.563006222186495" /><path d="M 173.08426987136738 54.67131705675599 a86.0,86.0 0 0,1 12.851231095245387,41.99856678651699" fill="none" id="id15" stroke="none" /><text fill="#e1ed5e" style="font-size:6.75px; font-family:Arial;" text-anchor="middle"><textPath startOffset="22.20632615414155" xlink:href="#id15">March</textPath></text><line stroke="#e1ed5e" stroke-width="0.3" x1="184.98032266829074" x2="189.97916517819016" y1="98.17113171792111" y2="98.06355123074" /><path d="M 185.9800911702706 98.14961562048488 a86.0,86.0 0 0,1 -9.607161424134198,41.387399972396054" fill="none" id="id16" stroke="none" /><text fill="#e1ed5e" style="font-size:6.75px; font-family:Arial;" text-anchor="middle"><textPath startOffset="21.466115282336823" xlink:href="#id16">April</textPath></text><line stroke="#e1ed5e" stroke-width="0.3" x1="174.80103733775053" x2="179.2010983576182" y1="140.37084112569926" y2="142.7455964860345" /><path d="M 175.68104954172406 140.8457921977663 a86.0,86.0 0 0,1 -30.038265399797805,32.042727171017184" fill="none" id="id17" stroke="none" /><text fill="#e1ed5e" style="font-size:6.75px; font-family:Arial;" text-anchor="middle"><textPath startOffset="22.206326154141568" xlink:href="#id17">May</textPath></text><line stroke="#e1ed5e" stroke-width="0.3" x1="143.8653032363475" x2="146.44561519142675" y1="172.8068346515853" y2="177.08958963109032" /><path d="M 144.38136562736335 173.6633856474863 a86.0,86.0 0 0,1 -40.68145358897372,12.25698825130547" fill="none" id="id18" stroke="none" /><text fill="#e1ed5e" style="font-size:6.75px; font-family:Arial;" text-anchor="middle"><textPath startOffset="21.466115282336833" xlink:href="#id18">June</textPath></text><path d="M 107.59598834532513 119.57807347666477 l 3.2130604585419777 8.281415252699224 a29.88288219542989,29.88288219542989 0 0,0 -0.4811567790374964,0.18193232288300548 l -3.0700334587442066 -8.335495825688861" fill="#ff2803" stroke="none" /><path d="M 107.2578585660854 119.70592522655815 l 7.051012399654588 19.14431396726292 a41.401508109383016,41.401508109383016 0 0,0 -0.6708630176215452,0.2405476099561835 l -6.720429821403308 -19.262849118259066" fill="#ffd213" stroke="none" /><path d="M 106.91757812671514 119.82793768551818 l 4.771292908854648 13.676014458119113 a35.48442637734645,35.48442637734645 0 0,0 -0.5784472932536342,0.19624072814754634 l -4.535175882663787 -13.756118173164783" fill="#ff7d0b" stroke="none" /><path d="M 105.53697534728816 120.25689768951611 l 1.6692406752563087 6.106878838535326 a27.330903062003138,27.330903062003138 0 0,0 -0.4548767536553622,0.12013708495085976 l -1.563873478789449 -6.134707272789769" fill="#ff0000" stroke="none" /><path d="M 105.18746579009965 120.34920634021253 l 1.6940213387692422 6.645246669988381 a27.857770162465144,27.857770162465144 0 0,0 -0.4656847004719986,0.11445396932354543 l -1.5793833535540325 -6.673421897625956" fill="#ff0801" stroke="none" /><path d="M 104.48393922423573 120.51570834832081 l 4.469755252328938 20.450811342293694 a41.933571042080004,41.933571042080004 0 0,0 -0.7064978803545562,0.1480534999785207 l -4.117065910545004 -20.524720822998756" fill="#ffd914" stroke="none" /><path d="M 101.26447882468166 120.96189622390904 l 1.2128484685203615 20.105994055575664 a41.1425420036905,41.1425420036905 0 0,0 -0.7072832647205646,0.03655846590871857 l -0.8665771353863172 -20.123892328246587" fill="#ffce13" stroke="none" /><path d="M 100.90346689309514 120.98055641714683 l 0.2853743857189683 6.627042391197971 a27.633183956047006,27.633183956047006 0 0,0 -0.47539557055953824,0.01637358467113924 l -0.17125846348477777 -6.630972774295205" fill="#ff0500" stroke="none" /><line stroke="#e1ed5e" stroke-width="0.3" x1="102.19456741930631" x2="102.32365962044197" y1="184.97166512339345" y2="189.96999836594603" /><path d="M 102.22038585953345 185.97133177190398 a86.0,86.0 0 0,1 -42.740103519485714,-10.115201625700543" fill="none" id="id19" stroke="none" /><text fill="#e1ed5e" style="font-size:6.75px; font-family:Arial;" text-anchor="middle"><textPath startOffset="22.20632615414155" xlink:href="#id19">July</textPath></text><path d="M 100.54218724476979 120.99299961872073 l 1.1320071601338584 43.83029315115887 a64.8449089168528,64.8449089168528 0 0,0 -1.1160744756089989,0.019214234241235188 l -0.3773729946321914 -43.84328486267926" fill="#33ff52" stroke="none" /><path d="M 99.81925306533755 120.99922214144158 l -0.18081464235333278 21.007088437178346 a42.00786658712211,42.00786658712211 0 0,0 -0.7230160155331832,-0.012447376394876052 l 0.5423903477791839 -21.000863583504312" fill="#ffda14" stroke="none" /><path d="M 99.09653310690486 120.98055641714683 l -0.8743215193384364 20.303734540136556 a41.322550883083366,41.322550883083366 0 0,0 -0.7103778053516102,-0.03671841831224192 l 1.2236873931035357 -20.285676315062112" fill="#ffd113" stroke="none" /><path d="M 98.73552117531835 120.96189622390904 l -1.2197605855191762 20.220579666966543 a41.25733590465752,41.25733590465752 0 0,0 -0.708520558012953,-0.0488637259426924 l 1.5676439043110593 -20.196587596507566" fill="#ffd013" stroke="none" /><path d="M 97.65516085044442 120.86867818915974 l -6.3692511725688 56.68527542772327 a78.04198287942063,78.04198287942063 0 0,0 -1.3336727383865254,-0.1614891953928867 l 7.344051334006715 -56.56724070360503" fill="#45ffee" stroke="none" /><path d="M 95.86986931433489 120.58985236759428 l -2.61164663645369 13.019786242489362 a34.279138976372494,34.279138976372494 0 0,0 -0.5775358126042524,-0.12102824480674931 l 2.8353739104873292 -12.972902016956072" fill="#ff6b09" stroke="none" /><line stroke="#e1ed5e" stroke-width="0.3" x1="58.666819895761336" x2="56.23545636021788" y1="174.27360380694188" y2="178.64263932499728" /><path d="M 58.180547188652646 175.14741091055294 a86.0,86.0 0 0,1 -31.652253787137756,-30.449443065178592" fill="none" id="id20" stroke="none" /><text fill="#e1ed5e" style="font-size:6.75px; font-family:Arial;" text-anchor="middle"><textPath startOffset="22.20632615414155" xlink:href="#id20">August</textPath></text><path d="M 87.95078237400918 117.19931262002967 l -11.949109780838679 17.05641652686134 a41.825526867100464,41.825526867100464 0 0,0 -0.5861004550147583,-0.4181671127207865 l 12.240937563702321 -16.848205152296334" fill="#ffd714" stroke="none" /><path d="M 82.6465618267979 111.8261652097733 l -17.224951256361795 11.738602878281295 a41.844513506389006,41.844513506389006 0 0,0 -0.4005055843039495,-0.598701507223131 l 17.424459946076475 -11.440364456852341" fill="#ffd814" stroke="none" /><path d="M 82.44556493220864 111.52570212397912 l -17.500123164963597 11.490042599114775 a41.935027817472985,41.935027817472985 0 0,0 -0.3909845000385483,-0.6068166266868215 l 17.69531252837919 -11.187104372506505" fill="#ffd914" stroke="none" /><path d="M 82.24976979558568 111.22182372390057 l -17.62931281009481 11.145378873970142 a41.85694465640912,41.85694465640912 0 0,0 -0.3797727634527305,-0.6123146169661896 l 17.818550213215495 -10.840267925638688" fill="#ffd814" stroke="none" /><line stroke="#e1ed5e" stroke-width="0.3" x1="26.63291911575756" x2="22.317208475507996" y1="142.92168965132927" y2="145.44649492493687" /><path d="M 25.769776987707644 143.4266507060508 a86.0,86.0 0 0,1 -11.730757126820373,-40.83630448921669" fill="none" id="id21" stroke="none" /><text fill="#e1ed5e" style="font-size:6.75px; font-family:Arial;" text-anchor="middle"><textPath startOffset="21.46611528233685" xlink:href="#id21">September</textPath></text><path d="M 81.87401531095188 110.60418214915194 l -18.143756001922224 10.614578838875524 a42.02058909222082,42.02058909222082 0 0,0 -0.35987233660652884,-0.6274677526030167 l 18.323780334681132 -10.3006912404142" fill="#ffda14" stroke="none" /><path d="M 81.35079622478065 109.6543875284942 l -22.695725054433446 11.74920535786136 a46.556599192530214,46.556599192530214 0 0,0 -0.36230197001290043,-0.714856158432264 l 22.894605694232613 -11.35679498772641" fill="#e7ff1a" stroke="none" /><path d="M 81.02952815118164 109.00673069616217 l -18.765967546106936 8.909636897156686 a41.77361710393052,41.77361710393052 0 0,0 -0.3028097556967711,-0.6522252745503226 l 18.916551918643535 -8.585291555327537" fill="#ffd714" stroke="none" /><path d="M 80.87730276802145 108.67885076344099 l -18.899970088420314 8.577765878999232 a41.755407411518235,41.755407411518235 0 0,0 -0.2914108198493138,-0.6570544685505437 l 19.04482199300091 -8.251163073955993" fill="#ffd714" stroke="none" /><path d="M 80.32549172779594 107.34259656027581 l -32.87232721411832 12.268069594992047 a56.08696949096106,56.08696949096106 0 0,0 -0.3297800002797071,-0.9074129258954627 l 33.078631475403256 -11.700408872090467" fill="#73ff27" stroke="none" /><path d="M 80.20201598880116 107.00284435728193 l -19.555305779947613 6.917005421287664 a41.74258778805999,41.74258778805999 0 0,0 -0.23377671733490835,-0.6794645690309654 l 19.67147332822575 -6.579368149167402" fill="#ffd614" stroke="none" /><path d="M 80.0844068197444 106.66101706037122 l -19.957223881299747 6.674940964488988 a42.04389749850854,42.04389749850854 0 0,0 -0.22364900705056837,-0.6883208671051294 l 20.069165139366564 -6.330421197406055" fill="#ffda14" stroke="none" /><path d="M 79.97269907076064 106.31721596034903 l -20.048835063873373 6.324008477198051 a42.02258001859123,42.02258001859123 0 0,0 -0.21166018648503765,-0.6917177360095359 l 20.15472202286454 -5.977963768636467" fill="#ffda14" stroke="none" /><path d="M 79.76711848015287 105.62410040840567 l -25.200221377699904 7.004863603002321 a47.15567379330439,47.15567379330439 0 0,0 -0.21065545094998797,-0.7839272987361519 l 25.317064904991664 -6.570045371090631" fill="#e0ff1b" stroke="none" /><path d="M 79.67330655649465 105.27499134158121 l -60.980080330516046 15.824974024743632 a84.0,84.0 0 0,0 -0.35115474281975656,-1.4026886424104326 l 61.24344638763086 -14.772957542935808" fill="#4dd2ff" stroke="none" /><line stroke="#e1ed5e" stroke-width="0.3" x1="15.007084014347285" x2="10.007500721073583" y1="101.09737516637583" y2="101.16192664675087" /><path d="M 14.007167355692545 101.11028546245083 a86.0,86.0 0 0,1 10.666146001902534,-42.60595125391555" fill="none" id="id22" stroke="none" /><text fill="#e1ed5e" style="font-size:6.75px; font-family:Arial;" text-anchor="middle"><textPath startOffset="22.20632615414155" xlink:href="#id22">October</textPath></text><line stroke="#e1ed5e" stroke-width="0.3" x1="26.266209847984243" x2="21.928928074336255" y1="57.711370442889674" y2="55.22380399835377" /><path d="M 25.398753493254645 57.213857153982495 a86.0,86.0 0 0,1 29.58750427330803,-30.492523968695096" fill="none" id="id23" stroke="none" /><text fill="#e1ed5e" style="font-size:6.75px; font-family:Arial;" text-anchor="middle"><textPath startOffset="21.46611528233685" xlink:href="#id23">November</textPath></text><line stroke="#e1ed5e" stroke-width="0.3" x1="56.76296977257108" x2="54.21961505331056" y1="26.818313649435495" y2="22.513508569990535" /><path d="M 56.25429882871898 25.957352633546506 a86.0,86.0 0 0,1 42.26535254187918,-11.944610805530505" fill="none" id="id24" stroke="none" /><text fill="#e1ed5e" style="font-size:6.75px; font-family:Arial;" text-anchor="middle"><textPath startOffset="22.20632615414155" xlink:href="#id24">December</textPath></text></svg>